# Blender v3.5.0 OBJ File: 'momento mori.blend'
# www.blender.org
o Cube
v -0.333253 0.242222 0.998655
v -0.328127 -1.025340 1.066633
v -0.283694 0.253235 -0.980682
v -0.304093 -1.358196 -0.975549
v 0.207385 0.242222 0.998655
v 0.497966 -0.854121 1.298373
v 0.075817 0.265397 -0.974559
v 0.277769 -1.198786 -0.975549
v 0.352670 -1.671348 0.690442
v 0.203324 -1.641485 -0.777357
v -0.352670 -1.671348 0.690442
v -0.235662 -1.641485 -0.777357
v 0.658945 -5.264730 0.894913
v 0.374818 -5.264730 -0.894913
v -0.658945 -5.264730 0.894913
v -0.445404 -5.264730 -0.894913
v -0.325123 -0.111511 1.020058
v 0.418822 -0.201914 1.042888
v -0.162322 0.157367 1.928882
v 0.095979 0.162100 1.998256
v -0.166957 0.341782 1.694565
v 0.048524 0.331888 1.771503
v -0.579138 1.940819 0.516497
v -0.254643 2.150458 0.516497
v -0.450541 1.963422 0.805412
v -0.230764 2.071570 0.805412
v -0.323228 1.548810 -0.682126
v -0.091443 1.687419 -0.631515
v -0.399118 0.246183 0.374621
v -0.455284 1.103907 0.422795
v 0.399118 0.245949 0.416695
v 0.234625 1.162868 0.422724
v -0.461381 1.029155 0.347976
v 0.200437 1.148414 0.369470
v 0.023459 1.129290 0.901877
v -0.386397 1.052169 0.900899
v -0.527335 1.876570 0.334813
v -0.526218 1.824018 -0.265043
v -0.174072 1.977939 -0.248065
v -0.112984 2.075543 0.341959
v -0.464938 1.660184 -0.353770
v -0.089615 1.757428 -0.388446
vt 0.508984 0.631780
vt 0.433868 0.621300
vt 0.439233 0.643561
vt 0.717843 0.379485
vt 0.746854 0.221721
vt 0.681503 0.155625
vt 0.586884 0.360756
vt 0.483736 0.195733
vt 0.520887 0.340563
vt 0.355717 0.824010
vt 0.265254 0.764221
vt 0.321881 0.566075
vt 0.510518 0.601337
vt 0.539241 0.627507
vt 0.549190 0.584618
vt 0.608005 0.616531
vt 0.928436 0.506290
vt 0.940819 0.580876
vt 0.490239 0.551121
vt 0.567016 0.761608
vt 0.497516 0.832423
vt 0.518256 0.580316
vt 0.508227 0.631779
vt 0.558051 0.610864
vt 0.577599 0.627974
vt 0.601378 0.576613
vt 0.375000 0.500000
vt 0.125000 0.750000
vt 0.125000 0.500000
vt 0.510377 0.335229
vt 0.013616 0.291773
vt 0.470918 0.204751
vt 0.591580 0.736471
vt 0.960353 0.441097
vt 0.974078 0.657460
vt 0.453558 0.250835
vt 0.075878 0.460185
vt 0.481873 0.295387
vt 0.574977 0.122409
vt 0.430047 0.645169
vt 0.556144 0.576668
vt 0.609911 0.617384
vt 0.618544 0.604616
vt 0.635092 0.616103
vt 0.643061 0.600906
vt 0.415155 0.846914
vt 0.362333 0.943392
vt 0.349551 0.900154
vt 0.823412 0.295022
vt 0.955038 0.304844
vt 0.822379 0.311434
vt 0.947571 0.318025
vt 0.846997 0.334418
vt 0.095759 0.844226
vt 0.072908 0.815511
vt 0.091928 0.808858
vt 0.964714 0.240512
vt 0.921331 0.328556
vt 0.957800 0.306052
vt 0.737789 0.158381
vt 0.843528 0.193467
vt 0.840435 0.136936
vt 0.100824 0.665937
vt 0.084811 0.666910
vt 0.094333 0.657712
vt 0.282669 0.594844
vt 0.176970 0.754746
vt 0.144880 0.603764
vt 0.424682 0.612443
vt 0.308917 0.664150
vt 0.292827 0.644590
vt 0.181895 0.781902
vt 0.294580 0.828596
vt 0.844225 0.248847
vt 0.765265 0.390164
vt 0.914286 0.364480
vt 0.103155 0.649228
vt 0.112485 0.657470
vt 0.111374 0.638634
vt 0.120024 0.645074
vt 0.193739 0.842508
vt 0.959213 0.129272
vt 0.360883 0.657025
vt 0.194965 0.592269
vt 0.156896 0.636847
vt 0.162319 0.603025
vt 0.156367 0.653089
vt 0.182878 0.745836
vt 0.118922 0.734274
vt 0.121900 0.641869
vt 0.063095 0.772416
vt 0.061705 0.674933
vt 0.189863 0.631263
vt 0.559863 0.586050
vt 0.484562 0.599629
vt 0.375000 0.750000
vt 0.033993 0.496338
vt 0.556959 0.584405
vt 0.011977 0.331213
vt 0.515455 0.856948
vt 0.946031 0.285720
vt 0.072687 0.838929
vt 0.087589 0.673509
vt 0.254650 0.756088
vt 0.751633 0.248230
vt 0.118624 0.627536
vt 0.124570 0.628458
vt 0.962535 0.159160
vt 0.352330 0.645791
vt 0.194612 0.661413
vn -0.0246 0.1182 0.9927
vn 0.9374 -0.2686 -0.2216
vn 0.9723 -0.2097 -0.1032
vn -0.9366 -0.3409 -0.0815
vn -0.0196 0.0898 0.9958
vn 0.0000 0.0324 -0.9995
vn -0.9986 0.0495 -0.0198
vn -0.1058 -0.5813 0.8068
vn 0.0000 -0.5732 -0.8194
vn 0.0000 -1.0000 0.0000
vn 0.9937 0.0503 -0.1001
vn -0.9900 0.0777 -0.1181
vn 0.0000 0.0568 0.9984
vn -0.9999 0.0027 -0.0122
vn 0.9911 0.0780 -0.1078
vn 0.0009 -0.0032 -1.0000
vn 0.2178 0.8368 -0.5024
vn -0.1788 0.7692 0.6134
vn -0.9806 0.1443 0.1330
vn 0.9478 0.2092 0.2406
vn -0.1080 -0.5757 0.8105
vn -0.5345 0.8273 0.1732
vn 0.8816 0.4424 -0.1645
vn 0.8850 0.2278 0.4060
vn -0.0348 0.0128 0.9993
vn -0.9911 0.0003 -0.1328
vn 0.9363 0.1659 0.3095
vn 0.0670 0.2414 -0.9681
vn -0.8937 -0.1784 0.4117
vn -0.9920 -0.0708 0.1043
vn -0.9944 -0.0165 0.1048
vn 0.8544 0.4350 0.2843
vn 0.9674 0.1609 -0.1954
vn -0.0526 0.0406 0.9978
vn -0.0049 0.0558 -0.9984
vn -0.9893 -0.0483 0.1373
vn 0.8721 0.2766 0.4037
vn -0.0217 0.1027 0.9945
vn -0.4583 0.8550 -0.2428
vn -0.4291 0.8973 -0.1040
vn -0.9047 -0.3190 -0.2823
vn 0.9409 0.3234 -0.1002
vn -0.9307 -0.3645 0.0302
vn -0.2012 0.4701 -0.8594
vn 0.0000 0.1085 0.9941
vn 0.9899 -0.1180 -0.0780
vn 0.0000 0.0604 0.9982
vn -0.9542 -0.2878 -0.0819
vn 0.0000 -0.5032 0.8642
vn 0.1156 -0.4220 -0.8992
vn 0.9848 0.0750 -0.1563
vn -0.9951 0.0601 -0.0781
vn -0.9998 0.0126 -0.0184
vn 0.9815 0.1355 -0.1355
vn 0.0169 0.0030 -0.9999
vn 0.1162 0.8115 -0.5726
vn -0.1825 0.7709 0.6103
vn -0.9849 0.0120 0.1729
vn 0.8915 0.4318 0.1367
vn -0.1956 -0.6076 0.7698
vn -0.4250 0.8637 0.2710
vn 0.9428 0.3155 -0.1073
vn -0.0271 0.0205 0.9994
vn -0.9930 -0.0819 -0.0850
vn 0.0090 0.2248 -0.9744
vn -0.9891 -0.0553 0.1365
vn 0.9552 0.1988 -0.2192
vn -0.0380 0.0310 0.9988
vn -0.0095 0.1099 -0.9939
vn -0.0463 0.0717 -0.9964
vn 0.0526 0.0160 -0.9985
vn 0.8968 0.4399 0.0460
vn -0.0442 0.0899 0.9950
vn -0.2641 0.8730 -0.4101
vn -0.3959 0.9147 -0.0809
vn -0.9948 -0.0784 -0.0655
vn -0.1445 0.4289 -0.8917
s off
f 1/1/1 35/2/1 36/3/1
f 7/4/2 31/5/2 18/6/2
f 8/7/3 9/8/3 10/9/3
f 17/10/4 29/11/4 3/12/4
f 5/13/5 17/14/5 18/15/5
f 12/16/6 14/17/6 16/18/6
f 4/19/7 11/20/7 2/21/7
f 2/22/8 9/23/8 6/24/8
f 4/25/9 10/26/9 12/16/9
f 15/27/10 14/28/10 13/29/10
f 9/30/11 14/31/11 10/32/11
f 11/33/12 16/34/12 15/35/12
f 11/36/13 13/37/13 9/38/13
f 17/10/14 4/19/14 2/21/14
f 8/7/15 18/6/15 6/39/15
f 3/40/16 8/41/16 4/25/16
f 18/15/17 21/42/17 22/43/17
f 22/43/18 19/44/18 20/45/18
f 17/46/19 19/47/19 21/48/19
f 18/49/20 20/50/20 6/51/20
f 6/51/21 19/52/21 2/53/21
f 25/54/22 24/55/22 23/56/22
f 40/57/23 42/58/23 39/59/23
f 5/60/24 32/61/24 35/62/24
f 34/63/25 37/64/25 33/65/25
f 3/66/26 33/67/26 27/68/26
f 5/60/27 31/5/27 32/61/27
f 7/69/28 27/70/28 28/71/28
f 30/72/29 25/54/29 23/56/29
f 30/72/30 29/11/30 1/73/30
f 29/11/31 17/10/31 1/73/31
f 18/6/32 31/5/32 5/60/32
f 34/74/33 7/75/33 28/76/33
f 34/63/34 29/77/34 31/78/34
f 30/79/35 32/80/35 29/77/35
f 36/81/36 30/72/36 1/73/36
f 32/61/37 26/82/37 35/62/37
f 35/2/38 25/83/38 36/3/38
f 27/84/39 42/85/39 28/86/39
f 39/87/40 37/88/40 40/89/40
f 27/68/41 33/67/41 41/90/41
f 42/58/42 34/74/42 28/76/42
f 41/90/43 37/91/43 38/92/43
f 41/93/44 39/87/44 42/85/44
f 1/1/45 5/13/45 35/2/45
f 8/7/46 6/39/46 9/8/46
f 5/13/47 1/1/47 17/14/47
f 12/16/6 10/26/6 14/17/6
f 4/19/48 12/94/48 11/20/48
f 2/22/49 11/95/49 9/23/49
f 4/25/50 8/41/50 10/26/50
f 15/27/10 16/96/10 14/28/10
f 9/30/51 13/97/51 14/31/51
f 11/33/52 12/98/52 16/34/52
f 11/36/13 15/99/13 13/37/13
f 17/10/53 3/12/53 4/19/53
f 8/7/54 7/4/54 18/6/54
f 3/40/55 7/69/55 8/41/55
f 18/15/56 17/14/56 21/42/56
f 22/43/57 21/42/57 19/44/57
f 17/46/58 2/100/58 19/47/58
f 18/49/59 22/101/59 20/50/59
f 6/51/60 20/50/60 19/52/60
f 25/54/61 26/102/61 24/55/61
f 40/57/62 34/74/62 42/58/62
f 34/63/63 40/103/63 37/64/63
f 3/66/64 29/104/64 33/67/64
f 7/69/65 3/40/65 27/70/65
f 30/72/66 36/81/66 25/54/66
f 34/74/67 31/105/67 7/75/67
f 34/63/68 33/65/68 29/77/68
f 30/79/69 23/106/69 32/80/69
f 23/106/70 24/107/70 32/80/70
f 32/80/71 31/78/71 29/77/71
f 32/61/72 24/108/72 26/82/72
f 35/2/73 26/109/73 25/83/73
f 27/84/74 41/93/74 42/85/74
f 39/87/75 38/110/75 37/88/75
f 41/90/76 33/67/76 37/91/76
f 41/93/77 38/110/77 39/87/77
