# Blender v3.5.0 OBJ File: ''
# www.blender.org
o Cube
v -1.000000 1.000000 1.000000
v -1.000000 -1.000000 1.000000
v -1.000000 1.000000 -1.000000
v -1.000000 -1.000000 -1.000000
v 1.000000 1.000000 1.000000
v 1.000000 -1.000000 1.000000
v 1.000000 1.000000 -1.000000
v 1.000000 -1.000000 -1.000000
v -0.987958 3.024392 0.067134
v -0.018601 3.024392 0.067134
v -0.987958 3.024392 1.036491
v -0.018601 3.024392 1.036491
vt 0.625000 0.250000
vt 0.625000 0.000000
vt 0.625000 0.250000
vt 0.625000 0.750000
vt 0.375000 1.000000
vt 0.375000 0.750000
vt 0.625000 0.000000
vt 0.375000 0.250000
vt 0.375000 0.000000
vt 0.375000 0.500000
vt 0.125000 0.750000
vt 0.125000 0.500000
vt 0.625000 0.500000
vt 0.875000 0.500000
vt 0.625000 0.750000
vt 0.625000 0.500000
vt 0.625000 1.000000
vt 0.625000 1.000000
vt 0.875000 0.750000
vn 0.8933 0.4495 0.0000
vn 0.0000 0.0000 -1.0000
vn 1.0000 0.0000 0.0000
vn 0.0000 -1.0000 0.0000
vn -1.0000 0.0000 0.0000
vn 0.0000 0.0000 1.0000
vn 0.0000 1.0000 0.0000
vn -1.0000 0.0059 0.0000
vn 0.0000 -0.0180 0.9998
vn 0.0000 0.4663 -0.8846
s off
f 5/1/1 10/2/1 12/3/1
f 3/4/2 8/5/2 4/6/2
f 7/7/3 6/8/3 8/9/3
f 2/10/4 8/11/4 6/12/4
f 1/13/5 4/6/5 2/10/5
f 5/1/6 2/10/6 6/8/6
f 12/14/7 9/15/7 11/16/7
f 1/13/8 9/15/8 3/4/8
f 1/13/9 12/3/9 11/16/9
f 3/4/10 10/17/10 7/18/10
f 5/1/1 7/7/1 10/2/1
f 3/4/2 7/18/2 8/5/2
f 7/7/3 5/1/3 6/8/3
f 2/10/4 4/6/4 8/11/4
f 1/13/5 3/4/5 4/6/5
f 5/1/6 1/13/6 2/10/6
f 12/14/7 10/19/7 9/15/7
f 1/13/8 11/16/8 9/15/8
f 1/13/9 5/1/9 12/3/9
f 3/4/10 9/15/10 10/17/10
