
# Blender v3.5.0 OBJ File: 'test.blend'
# www.blender.org
o Cube_Cube.001
v 1.000000 -1.000000 -1.000000
v 1.000000 1.000000 -1.000000
v 1.000000 -1.000000 1.000000
v 1.000000 1.000000 1.000000
v -1.000000 -1.000000 -1.000000
v -1.000000 1.000000 -1.000000
v -1.000000 -1.000000 1.000000
v -1.000000 1.000000 1.000000
v -0.354086 3.164654 -2.300645
v -0.354086 3.164654 -1.132008
v -1.522723 3.164654 -1.132008
v -1.522723 3.164654 -2.300645
v -0.663942 6.007709 -1.990788
v -0.663942 6.007709 -1.441865
v -1.212866 6.007709 -1.441865
v -1.212866 6.007709 -1.990788
vt 0.205093 0.261281
vt 0.059690 0.000000
vt 0.264783 0.061179
vt 0.769692 0.629808
vt 1.000000 0.756360
vt 0.787429 0.781256
vt 0.264784 0.607206
vt 0.532643 0.747849
vt 0.328271 0.811393
vt 0.745146 0.230246
vt 0.557189 0.000000
vt 0.769692 0.025473
vt 0.746667 0.773814
vt 0.532643 0.987838
vt 0.532643 0.773814
vt 0.144944 0.512342
vt 0.000000 0.200102
vt 0.875791 0.290027
vt 0.939146 0.040940
vt 1.000000 0.275480
vt 0.645523 0.480583
vt 0.532643 0.204774
vt 0.982263 0.604912
vt 0.469156 0.543661
vt 0.413225 0.316196
vt 0.532643 0.279065
vt 0.880804 0.047773
vt 0.934351 0.000000
vt 0.411151 0.000000
vt 0.264784 0.548090
vt 0.089789 0.813239
vt 0.769692 0.495467
vt 0.644607 0.766823
vt 0.746667 0.987838
vt 0.876009 0.006833
vt 0.355058 0.017441
vt 0.146079 0.830030
vt 0.702931 0.773814
vn 1.0000 0.0000 0.0000
vn 0.0000 0.0000 1.0000
vn -1.0000 0.0000 0.0000
vn 0.0000 0.0000 -1.0000
vn 0.0000 -1.0000 0.0000
vn 0.8478 0.5303 0.0000
vn 0.0000 0.1083 0.9941
vn 0.0000 -0.5150 -0.8572
vn 0.0000 0.7017 0.7125
vn -0.9721 -0.2347 0.0000
vn 0.0000 1.0000 0.0000
vn -0.9941 0.1083 0.0000
vn 0.9941 0.1083 0.0000
vn 0.0000 0.1083 -0.9941
s off
f 2/1/1 3/2/1 1/3/1
f 4/4/2 7/5/2 3/6/2
f 8/7/3 5/8/3 7/9/3
f 6/10/4 1/11/4 5/12/4
f 7/13/5 1/14/5 3/15/5
f 2/1/6 10/16/6 4/17/6
f 10/18/7 15/19/7 11/20/7
f 6/10/8 9/21/8 2/22/8
f 8/23/9 10/18/9 11/20/9
f 6/24/10 11/25/10 12/26/10
f 14/27/11 16/28/11 15/19/11
f 11/25/12 16/29/12 12/26/12
f 9/30/13 14/31/13 10/16/13
f 12/32/14 13/33/14 9/21/14
f 2/1/1 4/17/1 3/2/1
f 4/4/2 8/23/2 7/5/2
f 8/7/3 6/24/3 5/8/3
f 6/10/4 2/22/4 1/11/4
f 7/13/5 5/34/5 1/14/5
f 2/1/6 9/30/6 10/16/6
f 10/18/7 14/27/7 15/19/7
f 6/10/8 12/32/8 9/21/8
f 8/23/9 4/4/9 10/18/9
f 6/24/10 8/7/10 11/25/10
f 14/27/11 13/35/11 16/28/11
f 11/25/12 15/36/12 16/29/12
f 9/30/13 13/37/13 14/31/13
f 12/32/14 16/38/14 13/33/14
